<svg id="SvgjsSvg1001" width="288" height="288" xmlns="http://www.w3.org/2000/svg" version="1.1" xmlns:xlink="http://www.w3.org/1999/xlink" xmlns:svgjs="http://svgjs.com/svgjs"><defs id="SvgjsDefs1002"></defs><g id="SvgjsG1008"><svg xmlns="http://www.w3.org/2000/svg" fill="none" viewBox="0 0 1920 1821" width="288" height="288"><path fill="url(#a)" d="M1587.82 114.626C1843.91 -33.3382 2108.78 -7.04901 2209.21 24.5911L2212 1712.22C1890.49 1927.88 1848.65 1805.74 1433 1496.55C1017.34 1187.36 743.259 1319.28 582.855 1369.53C454.532 1409.73 301.567 1371.39 241.125 1347.19C-104.092 1189.46 -310.526 845.372 -326.566 507.568C-342.606 169.763 89.7866 114.626 348.525 283.528C607.263 452.43 885.529 416.835 950.388 404.97C1015.25 393.105 1267.71 299.581 1587.82 114.626Z"></path><defs><linearGradient id="a" x1="-327" x2="2212" y1="910.5" y2="910.5" gradientUnits="userSpaceOnUse"><stop stop-color="#edb078" class="stopColor2F057B svgShape"></stop><stop offset="1" stop-color="#9a6b45" class="stopColor6441C1 svgShape"></stop></linearGradient></defs></svg></g></svg>